<svg xmlns="http://www.w3.org/2000/svg" viewBox="0 0 121 121"><defs><style>.cls-1{fill:#35424b;stroke:#03286f;stroke-miterlimit:10;}</style></defs><title>o-approved</title><g id="图层_2" data-name="图层 2"><g id="Artwork"><path class="cls-1" d="M60.5,120.5a60,60,0,1,1,60-60,60.07,60.07,0,0,1-60,60Zm0-117.33A57.34,57.34,0,1,0,117.83,60.5,57.4,57.4,0,0,0,60.5,3.17Z"/><path class="cls-1" d="M41.08,91.43a1.33,1.33,0,0,1-1.28-1l-9.43-32a1.34,1.34,0,0,1,.9-1.66l16-4.73a1.34,1.34,0,0,1,1,.11A1.33,1.33,0,0,1,49,53l9.43,32a1.32,1.32,0,0,1-.11,1,1.35,1.35,0,0,1-.8.64l-16,4.72a1.19,1.19,0,0,1-.37.06ZM33.3,59,42,88.44l13.47-4L46.78,55,33.3,59Z"/><path class="cls-1" d="M76.3,78.75a15,15,0,0,1-2-.13c-1.62-.21-4.09-.42-6.91-.65l-4.15-.36a27.76,27.76,0,0,0-8.61.27A1.32,1.32,0,0,1,53.07,77l-5.74-19.5A1.34,1.34,0,0,1,47.77,56c3.56-2.83,9.85-9.69,11.84-13.35a27,27,0,0,0,.61-9.3,2.71,2.71,0,0,1,.68-2.15c1.46-1.63,4.72-1.65,4.75-1.65A3.94,3.94,0,0,1,68.51,31c2,2.14,2.87,6.13,2.48,10.94,0,.64-.15,1.32-.26,2-.06.41-.12.84-.18,1.27-.07.91-.11,1.76-.11,2.55.38.54,3.91,1.57,11.59,1.57h1.14a7.49,7.49,0,0,1,7.51,7.48,7.33,7.33,0,0,1-1.83,4.87,6.61,6.61,0,0,1,.23,2.11,6.46,6.46,0,0,1-2.48,4.72,4.66,4.66,0,0,1,0,.65A6.5,6.5,0,0,1,83,74.6a9.08,9.08,0,0,1-.29,1c-.77,2.06-3,3.17-6.36,3.17Zm-16.88-4c1.23,0,2.61.07,4.09.2l4.14.36c2.87.24,5.38.45,7,.66a13.56,13.56,0,0,0,1.64.12c.78,0,3.36-.11,3.86-1.42a5.43,5.43,0,0,0,.26-1.15,1.35,1.35,0,0,1,.88-1.12A3.85,3.85,0,0,0,83.92,69a3,3,0,0,0,0-.88,1.32,1.32,0,0,1,.64-1.39,3.82,3.82,0,0,0,1.9-3.07,3.75,3.75,0,0,0-.32-1.76,1.32,1.32,0,0,1,.33-1.52A4.77,4.77,0,0,0,88,56.81,4.82,4.82,0,0,0,83.2,52H82c-5.07,0-11.54-.42-13.5-2.44a2.48,2.48,0,0,1-.76-1.83c0-.82,0-1.74.13-2.78.06-.51.13-1,.19-1.4.1-.64.2-1.27.24-1.84.39-4.73-.67-7.71-1.79-8.92a1.41,1.41,0,0,0-.89-.54c-1,0-2.62.42-2.79.8a29.54,29.54,0,0,1-.81,10.66c-2.13,4-8,10.54-11.92,13.84L55.28,75a26.86,26.86,0,0,1,4.14-.29Z"/></g></g></svg>