<svg xmlns="http://www.w3.org/2000/svg" viewBox="0 0 120 120"><defs><style>.cls-1{fill:#35424b;}</style></defs><title>o-decide</title><g id="图层_2" data-name="图层 2"><g id="Artwork"><path class="cls-1" d="M60,120a60,60,0,1,1,60-60,60.07,60.07,0,0,1-60,60ZM60,2.67A57.33,57.33,0,1,0,117.33,60,57.4,57.4,0,0,0,60,2.67Z"/><path class="cls-1" d="M60,90.07a30.08,30.08,0,1,1,21.28-8.81A29.9,29.9,0,0,1,60,90.07ZM60,32.6a27.4,27.4,0,1,0,19.38,8A27.22,27.22,0,0,0,60,32.6Z"/><path class="cls-1" d="M60,79.41A19.43,19.43,0,0,1,40.59,60a1.33,1.33,0,0,1,1.33-1.34h0A1.34,1.34,0,0,1,43.26,60a16.74,16.74,0,1,0,33.48,0,1.34,1.34,0,0,1,2.67,0A19.44,19.44,0,0,1,60,79.41Z"/><path class="cls-1" d="M50.89,55a1.33,1.33,0,1,1-1.34,1.33A1.34,1.34,0,0,1,50.89,55m0-2.67a4,4,0,1,0,4,4,4,4,0,0,0-4-4Z"/><path class="cls-1" d="M69.11,55a1.33,1.33,0,1,1-1.33,1.33A1.34,1.34,0,0,1,69.11,55m0-2.67a4,4,0,1,0,4,4,4,4,0,0,0-4-4Z"/></g></g></svg>