<svg xmlns="http://www.w3.org/2000/svg" viewBox="0 0 120.93 120.93"><defs><style>.cls-1{fill:#03286f;}</style></defs><title>o-done</title><g id="图层_2" data-name="图层 2"><g id="Artwork"><path class="cls-1" d="M60.46,120.93a60.47,60.47,0,1,1,60.47-60.47,60.53,60.53,0,0,1-60.47,60.47Zm0-118.24a57.78,57.78,0,1,0,57.78,57.77A57.84,57.84,0,0,0,60.46,2.69Z"/><path class="cls-1" d="M49.62,85.77a1.33,1.33,0,0,1-1-.42L30.84,66.66a1.35,1.35,0,0,1,1.95-1.86L49.55,82.4,87.89,35.65A1.34,1.34,0,1,1,90,37.35L50.66,85.28a1.34,1.34,0,0,1-1,.49Z"/></g></g></svg>