<svg xmlns="http://www.w3.org/2000/svg" viewBox="0 0 120 120"><defs><style>.cls-1{fill:#03286f;}</style></defs><title>o-printing</title><g id="图层_2" data-name="图层 2"><g id="Artwork"><path class="cls-1" d="M60,120a60,60,0,1,1,60-60,60.07,60.07,0,0,1-60,60ZM60,2.67A57.33,57.33,0,1,0,117.33,60,57.4,57.4,0,0,0,60,2.67Z"/><path class="cls-1" d="M65.78,88.71a1.34,1.34,0,0,1-1.34-1.34v-16A1.34,1.34,0,0,1,65.78,70h16a1.34,1.34,0,0,1,0,2.67H67.11V87.37a1.34,1.34,0,0,1-1.33,1.34Z"/><path class="cls-1" d="M65.78,88.71H38.22a1.34,1.34,0,0,1-1.33-1.34V32.63a1.34,1.34,0,0,1,1.33-1.34H81.78a1.34,1.34,0,0,1,1.33,1.34V71.37a1.34,1.34,0,0,1-.39.95l-16,16a1.33,1.33,0,0,1-.94.39ZM39.56,86H65.22L80.44,70.82V34H39.56V86Z"/><path class="cls-1" d="M62.89,44.08H47.22a1.34,1.34,0,0,1,0-2.67H62.89a1.34,1.34,0,0,1,0,2.67Z"/><path class="cls-1" d="M73.22,50.52h-26a1.33,1.33,0,1,1,0-2.66h26a1.33,1.33,0,1,1,0,2.66Z"/><path class="cls-1" d="M73.22,57h-26a1.34,1.34,0,0,1,0-2.67h26a1.34,1.34,0,1,1,0,2.67Z"/><path class="cls-1" d="M58.11,63.41H47.22a1.33,1.33,0,0,1,0-2.66H58.11a1.33,1.33,0,0,1,0,2.66Z"/><rect class="cls-1" x="27" y="66.87" width="66" height="25" rx="3" ry="3"/></g></g></svg>