<svg xmlns="http://www.w3.org/2000/svg" viewBox="0 0 120 120"><defs><style>.cls-1{fill:none;stroke:#03286f;stroke-linecap:round;stroke-linejoin:round;stroke-width:2px;}.cls-2{fill:#03286f;}</style></defs><title>o-save</title><g id="图层_2" data-name="图层 2"><g id="Artwork"><path class="cls-1" d="M31,27.69H71.54a2.66,2.66,0,0,1,1.82.72l17.46,16.3a2.66,2.66,0,0,1,.85,1.95v43A2.68,2.68,0,0,1,89,92.31H31a2.68,2.68,0,0,1-2.67-2.68V30.37A2.68,2.68,0,0,1,31,27.69Z"/><path class="cls-1" d="M36.89,27.69V50.3a1.78,1.78,0,0,0,1.78,1.78H68.2A1.78,1.78,0,0,0,70,50.3V27.69"/><path class="cls-1" d="M38.67,68.57H78.54a1.78,1.78,0,0,1,1.78,1.78v22a0,0,0,0,1,0,0H36.89a0,0,0,0,1,0,0v-22A1.78,1.78,0,0,1,38.67,68.57Z"/><rect class="cls-2" x="36.89" y="27.69" width="16.55" height="24.39"/><path class="cls-2" d="M60,120a60,60,0,1,1,60-60,60.07,60.07,0,0,1-60,60ZM60,2.67A57.33,57.33,0,1,0,117.33,60,57.4,57.4,0,0,0,60,2.67Z"/></g></g></svg>