<svg xmlns="http://www.w3.org/2000/svg" viewBox="0 0 120 120"><defs><style>.cls-1{fill:#03286f;}</style></defs><title>o-wait</title><g id="图层_2" data-name="图层 2"><g id="Artwork"><path class="cls-1" d="M60,120a60,60,0,1,1,60-60,60.07,60.07,0,0,1-60,60ZM60,2.67A57.33,57.33,0,1,0,117.33,60,57.4,57.4,0,0,0,60,2.67Z"/><path class="cls-1" d="M63.36,58.62a1.36,1.36,0,0,1-1-.46,1.34,1.34,0,0,1,.14-1.88L75,45.53,62.49,34.78a1.33,1.33,0,1,1,1.74-2L77.88,44.52a1.34,1.34,0,0,1,0,2L64.23,58.3a1.36,1.36,0,0,1-.87.32Z"/><path class="cls-1" d="M34.39,74.27a1.31,1.31,0,0,1-.82-.28,16.44,16.44,0,0,1,10-29.48H74.71a1.34,1.34,0,0,1,0,2.67H43.6a13.78,13.78,0,0,0-8.4,24.7,1.33,1.33,0,0,1-.81,2.39Z"/><path class="cls-1" d="M56.63,87.56a1.3,1.3,0,0,1-.87-.32L42.11,75.48a1.34,1.34,0,0,1,0-2L55.76,61.7a1.33,1.33,0,0,1,1.74,2L45,74.47,57.5,85.22a1.33,1.33,0,0,1,.14,1.88,1.3,1.3,0,0,1-1,.46Z"/><path class="cls-1" d="M76.4,75.49H45.29a1.34,1.34,0,1,1,0-2.67H76.4a13.78,13.78,0,0,0,8.4-24.7,1.33,1.33,0,0,1-.25-1.87A1.35,1.35,0,0,1,86.42,46a16.44,16.44,0,0,1-10,29.48Z"/></g></g></svg>