<svg xmlns="http://www.w3.org/2000/svg" viewBox="0 0 14.52 15.95"><defs><style>.cls-1{fill:#03286f;}</style></defs><title>printer-active</title><g id="图层_2" data-name="图层 2"><g id="Artwork"><path class="cls-1" d="M14.16,0H3.09a2,2,0,0,0-2,2,.37.37,0,0,0,.37.37H2.4V6.72h-2A.36.36,0,0,0,0,7.09v8.49A.37.37,0,0,0,.37,16H14.16a.37.37,0,0,0,.36-.37V.37A.36.36,0,0,0,14.16,0Zm-.37,3.21H6.41V2.34h7.38ZM11,3.94h2.78V6.72H11ZM3.09.74h10.7V1.6H1.91A1.24,1.24,0,0,1,3.09.74ZM.74,7.45H13.79v5.68H.74Zm13.05,7.76H9.26v-.49a.18.18,0,0,0-.18-.18H5.45a.18.18,0,0,0-.19.18v.49H.74V13.86H13.79Z"/></g></g></svg>