<svg xmlns="http://www.w3.org/2000/svg" viewBox="0 0 189.85 51.22"><defs><style>.cls-1,.cls-2{fill:#fff;}.cls-2{font-size:10px;font-family:Helvetica-Light, Helvetica Light;}.cls-3{letter-spacing:-0.01em;}.cls-4{letter-spacing:0em;}.cls-5{letter-spacing:-0.01em;}.cls-6{letter-spacing:0em;}.cls-7{letter-spacing:0.02em;}</style></defs><title>start-logo</title><g id="图层_2" data-name="图层 2"><g id="Artwork"><path class="cls-1" d="M31.91,10.7V34.89H25.27V10.7Z"/><path class="cls-1" d="M41.08,10.7v4.49h.1a8.09,8.09,0,0,1,1.26-2.08,8.59,8.59,0,0,1,1.82-1.64,9.08,9.08,0,0,1,2.2-1.05,7.93,7.93,0,0,1,2.44-.37,5.43,5.43,0,0,1,1.45.23v6.18c-.32-.07-.69-.12-1.13-.17s-.86-.07-1.26-.07a7.15,7.15,0,0,0-3.09.61,5.37,5.37,0,0,0-2,1.66A6.57,6.57,0,0,0,41.74,21a13.24,13.24,0,0,0-.33,3v10.9H34.77V10.7Z"/><circle class="cls-1" cx="28.59" cy="3.71" r="3.71"/><path class="cls-1" d="M22,10.17H4.79a3.06,3.06,0,0,0-3,3.06.57.57,0,0,0,.57.57H3.72v6.79H.57a.58.58,0,0,0-.57.57V34.34a.58.58,0,0,0,.57.57H22a.58.58,0,0,0,.57-.57V10.74A.58.58,0,0,0,22,10.17Zm-.57,5H10V13.8H21.39Zm-4.31,1.14h4.31v4.3H17.08Zm-12.29-5h16.6v1.35H3A1.94,1.94,0,0,1,4.79,11.31ZM1.14,21.73H21.39v8.8H1.14Zm20.25,12h-7V33a.29.29,0,0,0-.29-.28H8.45a.29.29,0,0,0-.29.28v.76h-7V31.67H21.39Z"/><path class="cls-1" d="M55.7,10.74H66a12.62,12.62,0,0,1,2.25.23,6.1,6.1,0,0,1,2.31,1A5.55,5.55,0,0,1,72.32,14,7.4,7.4,0,0,1,73,17.51a6.17,6.17,0,0,1-2,4.9,8.2,8.2,0,0,1-5.62,1.73H57.19V34.91H55.7Zm1.49,12.11h8.5a6.92,6.92,0,0,0,2.76-.49,4.9,4.9,0,0,0,1.81-1.27,4.77,4.77,0,0,0,1-1.72,6.28,6.28,0,0,0,.3-1.9,7.48,7.48,0,0,0-.2-1.61,4.78,4.78,0,0,0-.81-1.79,5,5,0,0,0-1.71-1.46A6.24,6.24,0,0,0,65.89,12h-8.7Z"/><path class="cls-1" d="M74.84,10.74H84.93a12.76,12.76,0,0,1,3,.32,6.82,6.82,0,0,1,2.44,1A4.91,4.91,0,0,1,92,14a6.47,6.47,0,0,1,.6,2.94,6.32,6.32,0,0,1-1.37,4.12,6,6,0,0,1-3.81,2.08v.07a5.7,5.7,0,0,1,2.62.88,4.31,4.31,0,0,1,1.44,1.66,6.52,6.52,0,0,1,.61,2.16,20.91,20.91,0,0,1,.13,2.37v1.39A12.46,12.46,0,0,0,92.27,33a7.14,7.14,0,0,0,.22,1.1,2.5,2.5,0,0,0,.42.85H91.26a4.47,4.47,0,0,1-.53-2c0-.76,0-1.54,0-2.36s0-1.62-.1-2.42A5.24,5.24,0,0,0,89.94,26a3.88,3.88,0,0,0-1.71-1.52,7.69,7.69,0,0,0-3.3-.58h-8.6v11H74.84ZM84.93,22.62a9.13,9.13,0,0,0,2.45-.32,5.3,5.3,0,0,0,2-1,4.69,4.69,0,0,0,1.28-1.73,6,6,0,0,0,.48-2.5,4.88,4.88,0,0,0-.51-2.32,4.51,4.51,0,0,0-1.35-1.58,5.71,5.71,0,0,0-2-.88A9.85,9.85,0,0,0,84.93,12h-8.6v10.6Z"/><path class="cls-1" d="M95.82,10.74h1.49V34.91H95.82Z"/><path class="cls-1" d="M101.19,10.74h1.86l15.27,22.17h.06V10.74h1.49V34.91h-1.76L102.75,12.56h-.07V34.91h-1.49Z"/><path class="cls-1" d="M121.2,12V10.74h18.52V12h-8.53V34.91H129.7V12Z"/><path class="cls-1" d="M141.07,10.74h1.49V34.91h-1.49Z"/><path class="cls-1" d="M146.43,10.74h1.87l15.26,22.17h.07V10.74h1.49V34.91h-1.76L148,12.56h-.07V34.91h-1.49Z"/><path class="cls-1" d="M168,23a15.56,15.56,0,0,1,.76-4.9A12.44,12.44,0,0,1,171,14a10.56,10.56,0,0,1,3.57-2.8,10.92,10.92,0,0,1,4.86-1,11.61,11.61,0,0,1,3.55.54,9.45,9.45,0,0,1,5.28,4.13,9.15,9.15,0,0,1,1.22,3.39H188a9.27,9.27,0,0,0-3.05-5,8.5,8.5,0,0,0-5.55-1.79A9,9,0,0,0,172,14.93a11.18,11.18,0,0,0-1.9,3.68,14.54,14.54,0,0,0-.64,4.35,14.76,14.76,0,0,0,.63,4.35A10.29,10.29,0,0,0,172,30.88a8.88,8.88,0,0,0,3.1,2.42,9.9,9.9,0,0,0,4.36.9,10.08,10.08,0,0,0,3.9-.72,8.11,8.11,0,0,0,2.92-2,8.34,8.34,0,0,0,1.82-3.1,11.16,11.16,0,0,0,.5-4.05h-8.9V23.06h10.19V34.91h-1.29V29.76h-.06a7.65,7.65,0,0,1-1.32,2.39,8.17,8.17,0,0,1-2.09,1.79,10.69,10.69,0,0,1-2.67,1.14,12.29,12.29,0,0,1-7.92-.58,10.47,10.47,0,0,1-3.57-2.67,11.43,11.43,0,0,1-2.2-4A15.65,15.65,0,0,1,168,23Z"/><text class="cls-2" transform="translate(78.17 48.72)">upoad</text><text class="cls-2" transform="translate(5.32 48.72)">o<tspan class="cls-3" x="5.49" y="0">r</tspan><tspan class="cls-4" x="8.66" y="0">der</tspan></text><text class="cls-2" transform="translate(154.52 48.72)">deli<tspan class="cls-5" x="15.35" y="0">v</tspan><tspan class="cls-6" x="20.06" y="0">e</tspan><tspan class="cls-7" x="25.07" y="0">r</tspan><tspan x="28.59" y="0">y</tspan></text><circle class="cls-1" cx="46.15" cy="44.92" r="2.34"/><circle class="cls-1" cx="136.92" cy="44.92" r="2.34"/></g></g></svg>